<mxfile host="app.diagrams.net" modified="2021-08-11T06:51:43.353Z" agent="5.0 (Macintosh; Intel Mac OS X 10_15_7) AppleWebKit/537.36 (KHTML, like Gecko) Chrome/92.0.4515.131 Safari/537.36" etag="TME6B2_8xXFQoZvN_SOX" version="14.9.5" type="github">
  <diagram id="43s8J1iwnSDdJf3g1mhZ" name="Page-1">
    <mxGraphModel dx="1412" dy="798" grid="1" gridSize="1" guides="1" tooltips="1" connect="1" arrows="1" fold="1" page="1" pageScale="1" pageWidth="827" pageHeight="1169" background="none" math="0" shadow="0">
      <root>
        <mxCell id="0" />
        <mxCell id="1" parent="0" />
        <mxCell id="EBkyKj3g1xK_cwOpmnxG-49" value="&lt;font&gt;&lt;span style=&quot;font-size: 22px&quot;&gt;Export&lt;/span&gt;&lt;br&gt;&lt;i&gt;&lt;font style=&quot;font-size: 12px&quot;&gt;table ddl and raw data&lt;/font&gt;&lt;/i&gt;&lt;br&gt;&lt;/font&gt;" style="shape=step;perimeter=stepPerimeter;whiteSpace=wrap;html=1;fixedSize=1;fontColor=#FF8000;fillColor=#FFE6CC;" parent="1" vertex="1">
          <mxGeometry x="34" y="34" width="300" height="80" as="geometry" />
        </mxCell>
        <mxCell id="EBkyKj3g1xK_cwOpmnxG-52" value="" style="whiteSpace=wrap;html=1;" parent="1" vertex="1">
          <mxGeometry x="33" y="126" width="300" height="235" as="geometry" />
        </mxCell>
        <mxCell id="EBkyKj3g1xK_cwOpmnxG-54" style="edgeStyle=orthogonalEdgeStyle;rounded=0;orthogonalLoop=1;jettySize=auto;html=1;" parent="1" target="EBkyKj3g1xK_cwOpmnxG-57" edge="1">
          <mxGeometry relative="1" as="geometry">
            <mxPoint x="74" y="174" as="sourcePoint" />
            <Array as="points">
              <mxPoint x="74" y="173" />
              <mxPoint x="74" y="263" />
            </Array>
          </mxGeometry>
        </mxCell>
        <mxCell id="EBkyKj3g1xK_cwOpmnxG-55" value="Crown Cluster" style="text;html=1;strokeColor=none;fillColor=none;align=center;verticalAlign=middle;whiteSpace=wrap;rounded=0;fontStyle=1" parent="1" vertex="1">
          <mxGeometry x="56" y="149" width="40" height="20" as="geometry" />
        </mxCell>
        <mxCell id="EBkyKj3g1xK_cwOpmnxG-56" style="edgeStyle=orthogonalEdgeStyle;rounded=0;orthogonalLoop=1;jettySize=auto;html=1;entryX=0;entryY=0.5;entryDx=0;entryDy=0;" parent="1" source="EBkyKj3g1xK_cwOpmnxG-57" target="EBkyKj3g1xK_cwOpmnxG-63" edge="1">
          <mxGeometry relative="1" as="geometry" />
        </mxCell>
        <mxCell id="EBkyKj3g1xK_cwOpmnxG-57" value="" style="outlineConnect=0;fontColor=#232F3E;gradientColor=none;fillColor=#232F3E;strokeColor=none;dashed=0;verticalLabelPosition=bottom;verticalAlign=top;align=center;html=1;fontSize=12;fontStyle=0;aspect=fixed;pointerEvents=1;shape=mxgraph.aws4.traditional_server;" parent="1" vertex="1">
          <mxGeometry x="89" y="244" width="21.92" height="38" as="geometry" />
        </mxCell>
        <mxCell id="EBkyKj3g1xK_cwOpmnxG-58" value="Edgenode" style="text;html=1;strokeColor=none;fillColor=none;align=center;verticalAlign=middle;whiteSpace=wrap;rounded=0;" parent="1" vertex="1">
          <mxGeometry x="79.96" y="281" width="40" height="20" as="geometry" />
        </mxCell>
        <mxCell id="EBkyKj3g1xK_cwOpmnxG-63" value="" style="shape=image;verticalLabelPosition=bottom;labelBackgroundColor=#ffffff;verticalAlign=top;aspect=fixed;imageAspect=0;image=https://cdn.icon-icons.com/icons2/2248/PNG/512/concourse_ci_icon_134990.png;" parent="1" vertex="1">
          <mxGeometry x="256" y="242" width="43" height="43" as="geometry" />
        </mxCell>
        <mxCell id="EBkyKj3g1xK_cwOpmnxG-64" value="Concourse" style="text;html=1;strokeColor=none;fillColor=none;align=center;verticalAlign=middle;whiteSpace=wrap;rounded=0;" parent="1" vertex="1">
          <mxGeometry x="259" y="287" width="40" height="20" as="geometry" />
        </mxCell>
        <mxCell id="EBkyKj3g1xK_cwOpmnxG-81" value="export table ddl&lt;br&gt;export data" style="text;html=1;strokeColor=none;fillColor=none;align=left;verticalAlign=middle;whiteSpace=wrap;rounded=0;fontColor=#FF8000;" parent="1" vertex="1">
          <mxGeometry x="76" y="185" width="112" height="20" as="geometry" />
        </mxCell>
        <mxCell id="EBkyKj3g1xK_cwOpmnxG-82" value="trigger" style="text;html=1;strokeColor=none;fillColor=none;align=center;verticalAlign=middle;whiteSpace=wrap;rounded=0;fontColor=#3333FF;" parent="1" vertex="1">
          <mxGeometry x="229" y="223" width="112" height="20" as="geometry" />
        </mxCell>
        <mxCell id="EBkyKj3g1xK_cwOpmnxG-84" value="pulls on concourse container" style="text;html=1;strokeColor=none;fillColor=none;align=center;verticalAlign=middle;whiteSpace=wrap;rounded=0;fontStyle=2;fontColor=#3333FF;" parent="1" vertex="1">
          <mxGeometry x="132" y="269" width="112" height="20" as="geometry" />
        </mxCell>
        <mxCell id="EBkyKj3g1xK_cwOpmnxG-86" value="&lt;font&gt;&lt;span style=&quot;font-size: 22px&quot;&gt;Push&lt;/span&gt;&lt;br&gt;&lt;i&gt;&lt;font style=&quot;font-size: 12px&quot;&gt;raw data to AWS&lt;/font&gt;&lt;/i&gt;&lt;br&gt;&lt;/font&gt;" style="shape=step;perimeter=stepPerimeter;whiteSpace=wrap;html=1;fixedSize=1;fontColor=#3333FF;fillColor=#CCE5FF;" parent="1" vertex="1">
          <mxGeometry x="385" y="34" width="300" height="80" as="geometry" />
        </mxCell>
        <mxCell id="EBkyKj3g1xK_cwOpmnxG-88" value="" style="whiteSpace=wrap;html=1;" parent="1" vertex="1">
          <mxGeometry x="384" y="129" width="655" height="232" as="geometry" />
        </mxCell>
        <mxCell id="EBkyKj3g1xK_cwOpmnxG-87" value="&lt;font&gt;&lt;span style=&quot;font-size: 22px&quot;&gt;Import&lt;/span&gt;&lt;br&gt;&lt;i&gt;&lt;font style=&quot;font-size: 12px&quot;&gt;raw data into AWS&lt;/font&gt;&lt;/i&gt;&lt;br&gt;&lt;/font&gt;" style="shape=step;perimeter=stepPerimeter;whiteSpace=wrap;html=1;fixedSize=1;fontColor=#009900;fillColor=#E6FFCC;" parent="1" vertex="1">
          <mxGeometry x="736" y="35" width="300" height="80" as="geometry" />
        </mxCell>
        <mxCell id="EBkyKj3g1xK_cwOpmnxG-89" value="" style="outlineConnect=0;fontColor=#232F3E;gradientColor=none;fillColor=#277116;strokeColor=none;dashed=0;verticalLabelPosition=bottom;verticalAlign=top;align=center;html=1;fontSize=12;fontStyle=0;aspect=fixed;pointerEvents=1;shape=mxgraph.aws4.bucket_with_objects;" parent="1" vertex="1">
          <mxGeometry x="441" y="245" width="37.5" height="39" as="geometry" />
        </mxCell>
        <mxCell id="EBkyKj3g1xK_cwOpmnxG-90" style="edgeStyle=orthogonalEdgeStyle;rounded=0;orthogonalLoop=1;jettySize=auto;html=1;fontColor=#007FFF;" parent="1" source="EBkyKj3g1xK_cwOpmnxG-63" target="EBkyKj3g1xK_cwOpmnxG-89" edge="1">
          <mxGeometry relative="1" as="geometry">
            <Array as="points">
              <mxPoint x="406" y="264" />
              <mxPoint x="406" y="264" />
            </Array>
          </mxGeometry>
        </mxCell>
        <mxCell id="EBkyKj3g1xK_cwOpmnxG-91" value="AWS" style="text;html=1;strokeColor=none;fillColor=none;align=center;verticalAlign=middle;whiteSpace=wrap;rounded=0;fontStyle=1" parent="1" vertex="1">
          <mxGeometry x="398" y="148" width="40" height="20" as="geometry" />
        </mxCell>
        <mxCell id="EBkyKj3g1xK_cwOpmnxG-92" value="push" style="text;html=1;strokeColor=none;fillColor=none;align=center;verticalAlign=middle;whiteSpace=wrap;rounded=0;fontColor=#3333FF;" parent="1" vertex="1">
          <mxGeometry x="301" y="270" width="112" height="20" as="geometry" />
        </mxCell>
        <mxCell id="EBkyKj3g1xK_cwOpmnxG-97" style="edgeStyle=orthogonalEdgeStyle;rounded=0;orthogonalLoop=1;jettySize=auto;html=1;entryX=0;entryY=0.5;entryDx=0;entryDy=0;fontColor=#007FFF;" parent="1" source="EBkyKj3g1xK_cwOpmnxG-94" target="EBkyKj3g1xK_cwOpmnxG-96" edge="1">
          <mxGeometry relative="1" as="geometry">
            <Array as="points">
              <mxPoint x="653" y="429" />
              <mxPoint x="732" y="430" />
            </Array>
          </mxGeometry>
        </mxCell>
        <mxCell id="EBkyKj3g1xK_cwOpmnxG-94" value="" style="shape=umlActor;verticalLabelPosition=bottom;verticalAlign=top;html=1;outlineConnect=0;fontColor=#007FFF;" parent="1" vertex="1">
          <mxGeometry x="537" y="400" width="30" height="60" as="geometry" />
        </mxCell>
        <mxCell id="EBkyKj3g1xK_cwOpmnxG-114" style="edgeStyle=orthogonalEdgeStyle;rounded=0;orthogonalLoop=1;jettySize=auto;html=1;fontColor=#007FFF;" parent="1" source="EBkyKj3g1xK_cwOpmnxG-96" target="EBkyKj3g1xK_cwOpmnxG-101" edge="1">
          <mxGeometry relative="1" as="geometry">
            <mxPoint x="902.9999999999998" y="454.5" as="sourcePoint" />
          </mxGeometry>
        </mxCell>
        <mxCell id="EBkyKj3g1xK_cwOpmnxG-96" value="" style="shape=image;html=1;verticalAlign=top;verticalLabelPosition=bottom;labelBackgroundColor=#ffffff;imageAspect=0;aspect=fixed;image=https://cdn4.iconfinder.com/data/icons/socialcones/508/Github-128.png;fontColor=#007FFF;" parent="1" vertex="1">
          <mxGeometry x="730" y="405" width="49" height="49" as="geometry" />
        </mxCell>
        <mxCell id="EBkyKj3g1xK_cwOpmnxG-98" value="triggered on merge" style="text;html=1;strokeColor=none;fillColor=none;align=center;verticalAlign=middle;whiteSpace=wrap;rounded=0;fontColor=#00994D;" parent="1" vertex="1">
          <mxGeometry x="771" y="249" width="186" height="20" as="geometry" />
        </mxCell>
        <mxCell id="EBkyKj3g1xK_cwOpmnxG-99" value="code for new Azkaban job&lt;br&gt;code for table ddl" style="text;html=1;strokeColor=none;fillColor=none;align=left;verticalAlign=middle;whiteSpace=wrap;rounded=0;fontStyle=2;fontColor=#00994D;" parent="1" vertex="1">
          <mxGeometry x="579" y="430" width="146" height="32" as="geometry" />
        </mxCell>
        <mxCell id="EBkyKj3g1xK_cwOpmnxG-100" value="" style="outlineConnect=0;fontColor=#232F3E;gradientColor=none;fillColor=#277116;strokeColor=none;dashed=0;verticalLabelPosition=bottom;verticalAlign=top;align=center;html=1;fontSize=12;fontStyle=0;aspect=fixed;pointerEvents=1;shape=mxgraph.aws4.bucket_with_objects;" parent="1" vertex="1">
          <mxGeometry x="711" y="255" width="37.5" height="39" as="geometry" />
        </mxCell>
        <mxCell id="EBkyKj3g1xK_cwOpmnxG-113" style="edgeStyle=orthogonalEdgeStyle;rounded=0;orthogonalLoop=1;jettySize=auto;html=1;exitX=0;exitY=0.5;exitDx=0;exitDy=0;fontColor=#007FFF;" parent="1" source="EBkyKj3g1xK_cwOpmnxG-101" target="EBkyKj3g1xK_cwOpmnxG-100" edge="1">
          <mxGeometry relative="1" as="geometry" />
        </mxCell>
        <mxCell id="EBkyKj3g1xK_cwOpmnxG-101" value="" style="shape=image;verticalLabelPosition=bottom;labelBackgroundColor=#ffffff;verticalAlign=top;aspect=fixed;imageAspect=0;image=https://cdn.icon-icons.com/icons2/2248/PNG/512/concourse_ci_icon_134990.png;" parent="1" vertex="1">
          <mxGeometry x="928" y="252" width="43" height="43" as="geometry" />
        </mxCell>
        <mxCell id="EBkyKj3g1xK_cwOpmnxG-111" style="edgeStyle=orthogonalEdgeStyle;rounded=0;orthogonalLoop=1;jettySize=auto;html=1;entryX=1;entryY=0.5;entryDx=0;entryDy=0;fontColor=#007FFF;exitX=0.5;exitY=0;exitDx=0;exitDy=0;" parent="1" source="EBkyKj3g1xK_cwOpmnxG-102" target="EBkyKj3g1xK_cwOpmnxG-109" edge="1">
          <mxGeometry relative="1" as="geometry" />
        </mxCell>
        <mxCell id="EBkyKj3g1xK_cwOpmnxG-102" value="Concourse" style="text;html=1;strokeColor=none;fillColor=none;align=center;verticalAlign=middle;whiteSpace=wrap;rounded=0;" parent="1" vertex="1">
          <mxGeometry x="933" y="228" width="40" height="20" as="geometry" />
        </mxCell>
        <mxCell id="EBkyKj3g1xK_cwOpmnxG-105" value="pushes&lt;br&gt;- azkaban repo&lt;br&gt;- table DDL repo" style="text;html=1;strokeColor=none;fillColor=none;align=left;verticalAlign=middle;whiteSpace=wrap;rounded=0;fontStyle=2;fontColor=#00994D;" parent="1" vertex="1">
          <mxGeometry x="794" y="278" width="97" height="48" as="geometry" />
        </mxCell>
        <mxCell id="EBkyKj3g1xK_cwOpmnxG-107" value="Repos bucket" style="text;html=1;strokeColor=none;fillColor=none;align=center;verticalAlign=middle;whiteSpace=wrap;rounded=0;" parent="1" vertex="1">
          <mxGeometry x="708.5" y="298" width="40" height="20" as="geometry" />
        </mxCell>
        <mxCell id="EBkyKj3g1xK_cwOpmnxG-108" value="Production&lt;br&gt;bucket" style="text;html=1;strokeColor=none;fillColor=none;align=center;verticalAlign=middle;whiteSpace=wrap;rounded=0;" parent="1" vertex="1">
          <mxGeometry x="441" y="289" width="40" height="20" as="geometry" />
        </mxCell>
        <mxCell id="EBkyKj3g1xK_cwOpmnxG-115" style="edgeStyle=orthogonalEdgeStyle;rounded=0;orthogonalLoop=1;jettySize=auto;html=1;fontColor=#007FFF;" parent="1" source="EBkyKj3g1xK_cwOpmnxG-109" target="EBkyKj3g1xK_cwOpmnxG-100" edge="1">
          <mxGeometry relative="1" as="geometry" />
        </mxCell>
        <mxCell id="EBkyKj3g1xK_cwOpmnxG-116" style="edgeStyle=orthogonalEdgeStyle;rounded=0;orthogonalLoop=1;jettySize=auto;html=1;fontColor=#007FFF;" parent="1" source="EBkyKj3g1xK_cwOpmnxG-109" target="EBkyKj3g1xK_cwOpmnxG-89" edge="1">
          <mxGeometry relative="1" as="geometry">
            <Array as="points">
              <mxPoint x="733" y="138" />
              <mxPoint x="605" y="138" />
              <mxPoint x="460" y="139" />
            </Array>
          </mxGeometry>
        </mxCell>
        <mxCell id="EBkyKj3g1xK_cwOpmnxG-109" value="" style="shape=image;verticalLabelPosition=bottom;labelBackgroundColor=#ffffff;verticalAlign=top;aspect=fixed;imageAspect=0;image=https://pbs.twimg.com/profile_images/474186426733432832/TK0wsJkv.png;" parent="1" vertex="1">
          <mxGeometry x="707.75" y="163" width="44" height="44" as="geometry" />
        </mxCell>
        <mxCell id="EBkyKj3g1xK_cwOpmnxG-120" style="edgeStyle=orthogonalEdgeStyle;rounded=0;orthogonalLoop=1;jettySize=auto;html=1;fontColor=#007FFF;" parent="1" source="EBkyKj3g1xK_cwOpmnxG-118" target="EBkyKj3g1xK_cwOpmnxG-89" edge="1">
          <mxGeometry relative="1" as="geometry">
            <Array as="points">
              <mxPoint x="542" y="264" />
              <mxPoint x="542" y="264" />
            </Array>
          </mxGeometry>
        </mxCell>
        <mxCell id="EBkyKj3g1xK_cwOpmnxG-118" value="Analytical Env" style="strokeColor=#dddddd;shadow=1;strokeWidth=1;rounded=1;absoluteArcSize=1;arcSize=2;labelPosition=center;verticalLabelPosition=middle;align=center;verticalAlign=bottom;spacingLeft=0;fontColor=#999999;fontSize=12;whiteSpace=wrap;spacingBottom=2;" parent="1" vertex="1">
          <mxGeometry x="562" y="225" width="91" height="89" as="geometry" />
        </mxCell>
        <mxCell id="EBkyKj3g1xK_cwOpmnxG-119" value="" style="dashed=0;connectable=0;html=1;fillColor=#757575;strokeColor=none;shape=mxgraph.gcp2.desktop;part=1;" parent="EBkyKj3g1xK_cwOpmnxG-118" vertex="1">
          <mxGeometry x="0.5" width="50" height="45" relative="1" as="geometry">
            <mxPoint x="-25" y="12.5" as="offset" />
          </mxGeometry>
        </mxCell>
        <mxCell id="EBkyKj3g1xK_cwOpmnxG-121" value="submit code" style="text;html=1;strokeColor=none;fillColor=none;align=center;verticalAlign=middle;whiteSpace=wrap;rounded=0;fontColor=#00994D;" parent="1" vertex="1">
          <mxGeometry x="593" y="405" width="100" height="20" as="geometry" />
        </mxCell>
        <mxCell id="EBkyKj3g1xK_cwOpmnxG-123" value="deploys azkaban jobs" style="text;html=1;strokeColor=none;fillColor=none;align=left;verticalAlign=middle;whiteSpace=wrap;rounded=0;fontStyle=2;fontColor=#00994D;" parent="1" vertex="1">
          <mxGeometry x="805" y="172" width="137" height="48" as="geometry" />
        </mxCell>
        <mxCell id="EBkyKj3g1xK_cwOpmnxG-124" value="reads" style="text;html=1;strokeColor=none;fillColor=none;align=center;verticalAlign=middle;whiteSpace=wrap;rounded=0;fontColor=#00994D;" parent="1" vertex="1">
          <mxGeometry x="693" y="214" width="40" height="20" as="geometry" />
        </mxCell>
        <mxCell id="EBkyKj3g1xK_cwOpmnxG-126" value="create table if doesn&#39;t exist" style="text;html=1;strokeColor=none;fillColor=none;align=center;verticalAlign=middle;whiteSpace=wrap;rounded=0;fontColor=#00994D;" parent="1" vertex="1">
          <mxGeometry x="490" y="138" width="204" height="20" as="geometry" />
        </mxCell>
      </root>
    </mxGraphModel>
  </diagram>
</mxfile>
